<svg width="30" height="30" viewBox="0 0 30 30" fill="none" xmlns="http://www.w3.org/2000/svg">
<g clip-path="url(#clip0_4854_54524)">
<path d="M30 20.001V12.501H20.1125C20.4091 10.7553 21.3132 9.17064 22.665 8.02697C24.0168 6.88331 25.7293 6.25426 27.5 6.25098V3.75098C24.8487 3.75395 22.3069 4.80848 20.4322 6.6832C18.5575 8.55792 17.503 11.0997 17.5 13.751V25.001H25C26.3261 25.001 27.5979 24.4742 28.5355 23.5365C29.4732 22.5988 30 21.3271 30 20.001V20.001Z" fill="#CFCFCF"/>
<path d="M7.49982 25.001C8.8259 25.001 10.0977 24.4742 11.0354 23.5365C11.973 22.5988 12.4998 21.3271 12.4998 20.001V12.501H2.61232C2.9089 10.7553 3.81297 9.17064 5.16478 8.02697C6.51659 6.88331 8.22913 6.25426 9.99982 6.25098V3.75098C7.34857 3.75395 4.80676 4.80848 2.93204 6.6832C1.05732 8.55792 0.00279453 11.0997 -0.000183105 13.751V25.001H7.49982Z" fill="#CFCFCF"/>
</g>
<defs>
<clipPath id="clip0_4854_54524">
<rect width="30" height="30" fill="white" transform="matrix(-1 0 0 -1 30 30)"/>
</clipPath>
</defs>
</svg>
